<?xml version="1.0" standalone="no"?>
<!DOCTYPE svg PUBLIC "-//W3C//DTD SVG 20010904//EN"
 "http://www.w3.org/TR/2001/REC-SVG-20010904/DTD/svg10.dtd">
<svg version="1.0" xmlns="http://www.w3.org/2000/svg"
 width="1175.000000pt" height="450.000000pt" viewBox="0 0 1175.000000 450.000000"
 preserveAspectRatio="xMidYMid meet">

<g transform="translate(0.000000,450.000000) scale(0.100000,-0.100000)"
fill="#000000" stroke="none">
<path d="M50 2260 l0 -2210 469 0 c418 0 470 2 475 16 3 9 6 81 6 160 l0 144
-300 0 -300 0 0 1890 0 1890 294 0 c259 0 295 2 300 16 3 9 6 81 6 160 l0 144
-475 0 -475 0 0 -2210z"/>
<path d="M10750 4326 c0 -79 3 -151 6 -160 5 -14 41 -16 300 -16 l294 0 0
-1890 0 -1890 -300 0 -300 0 0 -144 c0 -79 3 -151 6 -160 5 -14 57 -16 475
-16 l469 0 0 2210 0 2210 -475 0 -475 0 0 -144z"/>
<path d="M2802 3635 c-208 -45 -375 -205 -427 -410 -19 -74 -19 -209 0 -298
33 -155 146 -301 286 -369 347 -168 744 2 834 356 23 91 21 256 -4 336 -88
284 -387 450 -689 385z m273 -299 c67 -33 118 -91 146 -165 52 -139 -21 -311
-160 -374 -70 -32 -189 -29 -257 6 -67 34 -112 80 -141 144 -34 73 -38 128
-17 204 15 54 27 73 78 125 48 47 73 64 116 77 77 23 165 17 235 -17z"/>
<path d="M7272 3635 c-208 -45 -375 -205 -427 -410 -19 -74 -19 -209 0 -298
33 -155 146 -301 286 -369 347 -168 744 2 834 356 23 91 21 256 -4 336 -88
284 -387 450 -689 385z m273 -299 c67 -33 118 -91 146 -165 52 -139 -21 -311
-160 -374 -70 -32 -189 -29 -257 6 -67 34 -112 80 -141 144 -34 73 -38 128
-17 204 15 54 27 73 78 125 48 47 73 64 116 77 77 23 165 17 235 -17z"/>
<path d="M8510 3634 c-204 -44 -373 -204 -424 -400 -20 -77 -20 -217 -1 -307
34 -160 141 -299 285 -369 99 -48 165 -62 285 -62 125 -1 218 27 320 95 112
75 104 49 105 324 1 132 1 246 1 253 -1 9 -52 12 -220 12 -166 0 -220 -3 -223
-12 -2 -7 -2 -64 0 -125 l4 -113 109 0 109 0 0 -51 0 -50 -57 -27 c-49 -22
-72 -26 -143 -26 -91 1 -138 15 -197 60 -180 137 -147 411 62 506 100 45 260
22 326 -48 12 -13 32 -24 43 -24 31 0 186 146 186 175 0 32 -76 97 -164 140
-125 62 -269 79 -406 49z"/>
<path d="M9632 3635 c-208 -45 -375 -205 -427 -410 -19 -74 -19 -209 0 -298
33 -155 146 -301 286 -369 347 -168 744 2 834 356 23 91 21 256 -4 336 -88
284 -387 450 -689 385z m273 -299 c67 -33 118 -91 146 -165 52 -139 -21 -311
-160 -374 -70 -32 -189 -29 -257 6 -67 34 -112 80 -141 144 -34 73 -38 128
-17 204 15 54 27 73 78 125 48 47 73 64 116 77 77 23 165 17 235 -17z"/>
<path d="M1417 3633 c-18 -17 6 -64 184 -362 l190 -320 0 -213 c-1 -117 3
-219 7 -226 6 -9 40 -12 133 -10 l124 3 3 224 2 223 191 318 c133 222 190 325
187 342 -3 23 -5 23 -134 26 -112 2 -133 0 -145 -14 -8 -9 -62 -98 -120 -198
-59 -99 -110 -180 -115 -180 -4 1 -53 81 -109 178 -56 97 -110 185 -120 196
-16 18 -30 20 -145 20 -70 0 -130 -3 -133 -7z"/>
<path d="M3594 3626 c-3 -7 -4 -191 -2 -407 3 -374 4 -397 25 -451 59 -158
174 -243 365 -270 154 -22 314 22 412 112 53 49 102 141 116 220 6 33 9 208 8
430 l-3 375 -130 0 -130 0 -5 -370 c-5 -407 -5 -404 -70 -458 -57 -49 -182
-51 -243 -4 -70 53 -71 60 -77 467 l-5 365 -128 3 c-103 2 -128 0 -133 -12z"/>
<path d="M4655 3628 c-3 -7 -4 -263 -3 -568 l3 -555 119 -3 c80 -2 123 1 133
9 11 10 14 42 12 158 l-1 146 93 3 94 2 94 -154 c51 -85 100 -157 108 -160 8
-3 63 -6 122 -6 109 0 131 7 131 40 0 19 -166 290 -188 308 -15 11 -12 17 29
52 95 81 139 185 140 335 1 133 -35 220 -125 303 -100 91 -124 96 -464 100
-235 3 -293 1 -297 -10z m540 -262 c38 -16 72 -63 81 -114 8 -44 -19 -115 -57
-147 -29 -24 -36 -25 -164 -25 l-134 0 -3 146 c-2 80 -1 148 1 150 2 2 58 4
123 4 81 0 130 -5 153 -14z"/>
<path d="M6057 3634 c-4 -4 -7 -258 -7 -565 0 -499 2 -557 16 -563 9 -3 163
-6 344 -6 268 0 330 3 339 14 8 9 11 52 9 127 l-3 114 -217 3 -218 2 -2 438
-3 437 -126 3 c-69 1 -128 -1 -132 -4z"/>
<path d="M2210 1944 c-204 -44 -373 -204 -424 -400 -20 -77 -20 -217 -1 -307
34 -160 141 -299 285 -369 99 -48 165 -62 285 -62 125 -1 218 27 320 95 112
75 104 49 105 324 1 132 1 246 1 253 -1 18 -437 18 -443 0 -2 -7 -2 -64 0
-125 l4 -113 109 0 109 0 0 -51 0 -50 -57 -27 c-49 -22 -72 -26 -143 -26 -91
1 -138 15 -197 60 -180 137 -147 411 62 506 100 45 260 22 326 -48 12 -13 32
-24 43 -24 31 0 186 146 186 175 0 32 -76 97 -164 140 -125 62 -269 79 -406
49z"/>
<path d="M3302 1945 c-208 -45 -375 -205 -427 -410 -19 -74 -19 -209 0 -298
33 -155 146 -301 286 -369 347 -168 744 2 834 356 23 91 21 256 -4 336 -88
284 -387 450 -689 385z m273 -299 c67 -33 118 -91 146 -165 52 -139 -21 -311
-160 -374 -70 -32 -189 -29 -257 6 -67 34 -112 80 -141 144 -34 73 -38 128
-17 204 15 54 27 73 78 125 48 47 73 64 116 77 77 23 165 17 235 -17z"/>
<path d="M5251 1944 c-182 -49 -280 -181 -261 -351 14 -127 76 -192 291 -304
173 -90 205 -115 195 -152 -21 -85 -201 -73 -308 22 -20 17 -45 31 -56 31 -28
0 -152 -172 -145 -200 9 -33 91 -100 166 -136 174 -82 387 -64 519 46 53 44
98 140 104 226 13 156 -67 254 -303 370 -137 67 -193 105 -193 131 0 31 39 53
94 53 43 0 70 -8 134 -40 44 -22 86 -40 94 -40 20 0 148 171 148 198 0 26 -57
74 -127 107 -110 53 -246 68 -352 39z"/>
<path d="M4117 1943 c-4 -3 -7 -255 -7 -558 0 -455 2 -555 14 -564 9 -8 117
-11 377 -9 l364 3 6 115 c3 68 2 120 -4 128 -7 9 -69 12 -248 12 l-239 0 0 85
c0 47 -1 88 -2 93 -2 4 78 9 177 12 l180 5 6 110 c3 61 1 118 -3 128 -8 15
-27 17 -183 17 l-173 0 -4 81 c-2 44 -1 83 1 85 2 2 109 4 237 4 202 0 233 2
238 16 11 30 7 219 -6 232 -9 9 -105 12 -368 12 -196 0 -360 -3 -363 -7z"/>
<path d="M6265 1938 c-3 -7 -4 -263 -3 -568 l3 -555 119 -3 c80 -2 123 1 132
9 12 10 14 51 14 223 l-2 211 226 3 226 2 2 -222 3 -223 119 -3 c78 -2 123 1
132 9 12 10 14 104 14 565 l0 554 -22 5 c-13 3 -72 5 -133 3 l-110 -3 -3 -212
-2 -213 -225 0 -225 0 -2 213 -3 212 -128 3 c-96 2 -129 -1 -132 -10z"/>
<path d="M7387 1943 c-4 -3 -7 -255 -7 -558 0 -455 2 -555 14 -564 9 -8 117
-11 377 -9 l364 3 6 115 c3 68 2 120 -4 128 -7 9 -69 12 -248 12 l-239 0 0 85
c0 47 -1 88 -2 93 -2 4 78 9 177 12 l180 5 6 110 c3 61 1 118 -3 128 -8 15
-27 17 -183 17 l-173 0 -4 81 c-2 44 -1 83 1 85 2 2 109 4 237 4 202 0 233 2
238 16 11 30 7 219 -6 232 -9 9 -105 12 -368 12 -196 0 -360 -3 -363 -7z"/>
<path d="M8255 1938 c-3 -7 -4 -263 -3 -568 l3 -555 119 -3 c80 -2 123 1 133
9 11 10 14 42 12 158 l-1 146 93 3 94 2 94 -154 c51 -85 100 -157 108 -160 8
-3 63 -6 122 -6 109 0 131 7 131 40 0 19 -166 290 -188 308 -15 11 -12 17 29
52 95 81 139 185 140 335 1 133 -35 220 -125 303 -100 91 -124 96 -464 100
-235 3 -293 1 -297 -10z m540 -262 c38 -16 72 -63 81 -114 8 -44 -19 -115 -57
-147 -29 -24 -36 -25 -164 -25 l-134 0 -3 146 c-2 80 -1 148 1 150 2 2 58 4
123 4 81 0 130 -5 153 -14z"/>
<path d="M9277 1943 c-4 -3 -7 -255 -7 -558 0 -455 2 -555 14 -564 9 -8 117
-11 377 -9 l364 3 6 115 c3 68 2 120 -4 128 -7 9 -69 12 -248 12 l-239 0 0 85
c0 47 -1 88 -2 93 -2 4 78 9 177 12 l180 5 6 110 c3 61 1 118 -3 128 -8 15
-27 17 -183 17 l-173 0 -4 81 c-2 44 -1 83 1 85 2 2 109 4 237 4 202 0 233 2
238 16 11 30 7 219 -6 232 -9 9 -105 12 -368 12 -196 0 -360 -3 -363 -7z"/>
</g>
</svg>
